<?xml version="1.0" encoding="UTF-8"?><svg id="Layer_1" xmlns="http://www.w3.org/2000/svg" viewBox="0 0 496.15 496.35"><defs><style>.cls-1{fill:#ff8303;}.cls-2{fill:#1b1a17;}</style></defs><path class="cls-2" d="m73.34,254.84c.83,21.79,5.58,42.79,14.14,62.54l-54.45,54.45-.62-1.11C12.84,336.43,1.7,297.33.18,257.64c-1.04-27.32,2.39-54.31,10.15-80.21h77.68l-2.77,7.05c-8.82,22.49-12.84,46.17-11.9,70.37Z"/><path class="cls-2" d="m496.15,248.65c-.07,23.94-3.5,47.57-10.27,70.25h-77.56l3.64-9.79c7.26-19.35,10.93-39.74,10.95-60.6.02-4.97-.17-9.96-.59-14.88-1.06-12.73-3.5-25.33-7.26-37.44-1.84-5.84-4.02-11.66-6.5-17.34l54.43-54.43.71,1.23c21.31,37.28,32.52,79.83,32.45,123Z"/><path class="cls-1" d="m476.57,346.67l-9.67,18.21c-.71,1.32-1.42,2.65-2.15,3.95l-.69,1.18c-.5.88-.99,1.75-1.51,2.63-.28.52-.59,1.06-.9,1.56,0,0-1.3,2.2-1.42,2.39v.02l-1.09,1.82-1.06,1.7-.17.21-.59.95-2.91,4.42c-.12.17-.43.66-.43.66l-.14.21c-.99,1.44-1.96,2.84-2.98,4.26-.31.47-.59.9-.9,1.28-1.04,1.51-2.22,3.12-3.57,4.87-2.37,3.17-5.06,6.58-8.11,10.27-.88,1.04-1.73,2.01-2.58,3l-1.63,1.89c-1.44,1.61-2.72,3.03-4,4.42l-.83.9c-1.32,1.4-2.63,2.77-3.95,4.14l-.8.78c-1.09,1.14-2.34,2.37-3.6,3.55-3.12,3.05-6.48,6.15-9.86,9.11-38.48,33.71-87.42,54.85-138.42,59.99v.05l-6.55.57c-1.42.12-2.86.19-4.28.26l-2.96.17c-4.07.17-7.66.26-11,.26-14.33,0-28.69-1.23-42.67-3.69l-5.89-1.04v-.17c-40.59-8.16-78.62-26.42-110.37-53.01-11.31-9.46-21.74-19.92-31.03-31.08l-5.01-6.03-4.33-5.44,4.52-4.73L342.73,101.43c-26.44-17.13-56.89-26.73-88.54-27.82l-.26-.02c-.85-.05-1.7-.07-2.55-.07h-.64c-.83-.05-1.66-.05-2.46-.05h-.54c-.85,0-1.68,0-2.51.05h-7.24c-6.81.38-13.6,1.14-20.25,2.29-4.68.8-9.63,2.01-15.16,3.67-22.02,5.96-42.25,15.92-60.32,29.69l-.9.71c-.97.76-1.96,1.54-2.93,2.32-1.7,1.37-3.38,2.77-5.2,4.38l-.8.71c-.9.78-1.8,1.56-2.67,2.39l-.54.52c-1.4,1.28-2.65,2.48-3.88,3.69l-.4.4c-1.4,1.37-2.63,2.63-3.81,3.93-1.37,1.44-2.67,2.86-3.93,4.26-1.16,1.3-2.27,2.58-3.34,3.9l-.62.71c-.95,1.16-1.89,2.32-2.81,3.5l-.76.95c-.54.71-1.11,1.47-1.63,2.18l-2.13,2.89-2.37,3.07-.02.02H19.32l.02-.02,8.89-16.77.85-1.56c.69-1.28,1.37-2.53,2.08-3.81l.66-1.18c.5-.88,1.02-1.75,1.54-2.63.26-.52.57-1.06.88-1.56,0,0,.33-.54.66-1.11.35-.59.71-1.18.76-1.28l1.11-1.85,1.06-1.7.17-.24.59-.92,2.91-4.42c.09-.17.57-.88.57-.88.97-1.42,1.94-2.84,2.98-4.26.31-.47.59-.9.88-1.28,1.04-1.51,2.22-3.1,3.57-4.85,2.37-3.19,5.06-6.58,8.14-10.29.85-1.02,1.7-1.99,2.53-2.96l1.66-1.94c1.66-1.82,3.1-3.43,4.57-5.01,1.49-1.58,2.84-3,4.23-4.42l.78-.8c1.11-1.14,2.34-2.37,3.6-3.52,3.15-3.1,6.5-6.2,9.86-9.13C118.78,31.6,160.2,11.73,204.64,3.86l9.65-2.13v.64c2.96-.4,5.96-.76,8.99-1.06v-.05l6.55-.57c1.42-.12,2.86-.19,4.3-.26l2.93-.17c4.04-.17,7.66-.26,11-.26,14.36,0,28.72,1.25,42.69,3.71l5.87,1.02v.17c40.59,8.18,78.65,26.44,110.37,53.01,11.31,9.46,21.74,19.92,31.03,31.08l5.06,6.1,4.23,5.35.02.02-4.42,4.66L153.17,394.92c26.44,17.13,56.89,26.73,88.54,27.82l.26.02c.83.05,1.7.07,2.53.07h.64c.83.05,1.66.05,2.46.05h.54c.85,0,1.68,0,2.53-.05h7.24c36.36-1.99,70.65-15.14,99.16-37.99l.88-.71c.4-.35.8-.69,1.23-1.06l.28-.21c.52-.4.88-.71,1.23-1.04,0,0,1.61-1.35,1.92-1.61l.28-.26c.54-.45,1.06-.9,1.58-1.4,1.56-1.4,3-2.74,4.42-4.07.12-.12.35-.35.62-.59l1.66-1.63,2.58-2.6.26-.28c.47-.5.92-.97,1.4-1.49l.17-.17c.57-.57,1.04-1.14,1.54-1.66l1.58-1.75c.28-.33.64-.73.97-1.14l1.04-1.21c.4-.45.76-.88,1.11-1.32l.19-.19c.73-.83,1.32-1.58,1.92-2.32l.26-.31c.73-.9,1.4-1.7,2.01-2.53l.21-.28c.38-.5.64-.8.88-1.16l.24-.33.24-.26.09-.14c.19-.26.38-.52.57-.8l.17-.26.43-.52.43-.57c.28-.38.59-.76.85-1.16l2.11-3.15h84.18Z"/></svg>